<svg xmlns="http://www.w3.org/2000/svg" viewBox="0 0 595.3 841.9" style="enable-background:new 0 0 595.3 841.9" xml:space="preserve"><path d="M255.5 229.1s12.5 0 31.6 6.6c13.5 4.5 26.3 10.5 38 18.7 23.3 16.4 41.9 40 51.8 66.7 21.9 58.9.6 124.9-50.3 161.3-51.9 37.1-125.9 34.3-173.1-9.2-39.4-36.3-55.3-88.4-42.8-139.9 16.4-67.1 78.5-104.2 144.8-104.2.3.2 0 0 0 0zm86.1 140.6c1.9-.1-2.2-21.7-3-24.7-3.4-12-9.4-22.9-17-32.8-11.1-14.4-26.4-25.9-43.6-31.8-39.2-13.6-83.5-.3-108.7 32.9-49.3 65 6.5 161.8 87.7 151.2 47-6.1 84.6-46.7 84.6-94.8.2 0 0 3.1 0 0zM464.8 613.1c-1.2-1.6-7.5-3.5-9.1-4.5-4.3-2.7-7.9-7.1-11.5-10.6-5.9-5.8-11.6-11.7-17.5-17.4-11-10.9-22.1-21.7-33-32.7-9.3-9.3-24.5-19.9-30.2-31.7-6.3-12.9 2.7-29.1 17.1-30.7 16.6-1.8 29.5 18 40 28.3 13.6 13.5 27.2 27 40.9 40.4 8.8 8.7 25.8 20.3 28.8 32.8 3.7 15.4-12.1 26.1-25.5 26.1-.2-.2 2.2 0 0 0z"/><path d="M471.5 613.1c.2-.2.3-.5.5-.6 1.2-.3 2.4-.5 3.5-.9 1.7-.7 3.3-1.5 4.9-2.4 1.2-.8 2.4-1.7 3.4-2.8 1.3-1.4 2.4-2.9 3.5-4.5.8-1.2 1.5-2.6 2.1-3.9.2-.4 0-1 .2-1.4.1-.3.4-.5.7-.7v17.3c-6.3-.1-12.5-.1-18.8-.1z" style="fill:#fff"/></svg>